<svg width="306" height="57" viewBox="0 0 306 57" fill="none" xmlns="http://www.w3.org/2000/svg">
<g clip-path="url(#clip0_18_346)">
<path d="M69.0207 21.717V24.4339H9.43164V21.717H15.7131V19H21.9757V16.3018H28.2572V13.5848H34.5198V10.8679H37.6511V8.16963H43.9326V5.45267H56.4766V8.16963H59.6079V10.8679H62.7392V16.3018H65.8894V21.717H69.0207Z" fill="#FF0054"/>
<path d="M40.7824 29.8679V32.5848H37.651V35.283H31.3696V32.5848H28.2383V29.8679H6.30029V57H43.9325V54.283H47.0638V51.5661H53.3453V54.283H56.4955V57H69.0395V29.8679H40.8201H40.7824ZM28.2383 43.4339H25.0881V46.1509H21.9568V48.8679H15.6753V46.1509H12.544V43.4339H9.39387V38.0187H12.544V35.3018H15.6753V32.6036H21.9568V35.3018H25.0881V38.0187H28.2383V43.4339ZM53.3264 35.3018H59.6079V40.7357H53.3264V35.3018ZM37.651 48.8679H31.3696V43.4339H37.651V48.8679Z" fill="#FF0054"/>
<path d="M62.7204 16.283V19H3.13135V16.283H9.41282V13.5661H15.6754V10.8491H21.9569V8.13215H28.2195V5.41519H31.3508V2.71696H37.6323V0H50.1763V2.71696H53.3077V5.41519H56.439V10.8491H59.5891V16.283H62.7204Z" fill="#1B00F4"/>
<path d="M34.4821 24.4152V27.1322H31.3508V29.8304H25.0693V27.1322H21.938V24.4152H0V51.5473H37.6322V48.8304H40.7635V46.1134H47.045V48.8304H50.1952V51.5473H62.7392V24.4152H34.5198H34.4821ZM21.938 37.9813H18.7878V40.6982H15.6565V43.4152H9.37505V40.6982H6.24374V37.9813H3.1313V32.5661H6.28147V29.8491H9.41277V27.1509H15.6942V29.8491H18.8255V32.5661H21.9757V37.9813H21.938ZM47.0261 29.8491H53.3076V35.283H47.0261V29.8491ZM31.3508 43.4152H25.0693V37.9813H31.3508V43.4152Z" fill="#1B00F4"/>
<path d="M65.8518 18.9812V21.6982H6.2627V18.9812H12.5442V16.2643H18.8068V13.5661H25.0882V10.8491H31.3509V8.13214H34.4822V5.41517H40.7636V2.69821H53.3077V5.41517H56.439V8.13214H59.5703V13.5661H62.7205V18.9812H65.8518Z" fill="#FFE600"/>
<path d="M37.6134 27.1321V29.8491H34.4821V32.5473H28.2006V29.8491H25.0693V27.1321H3.13135V54.2643H40.7636V51.5473H43.8949V48.8304H50.1763V51.5473H53.3265V54.2643H65.8706V27.1321H37.6511H37.6134ZM25.0693 40.6982H21.9192V43.4152H18.7879V46.1321H12.5064V43.4152H9.37509V40.6982H6.22492V35.283H9.37509V32.5661H12.5064V29.8678H18.7879V32.5661H21.9192V35.283H25.0693V40.6982ZM50.1575 32.5661H56.439V38H50.1575V32.5661ZM34.4821 46.1321H28.2006V40.6982H34.4821V46.1321Z" fill="#FFE600"/>
<path d="M106.238 21.0424H91.1095V18.0444H88.0914V15.0464H85.0732V6.01479H88.0914V2.99803H91.1095V0H106.238V2.99803H94.1276V5.99606H91.1095V15.0089H94.1276V18.0069H100.183V11.9921H97.1646V8.99408H106.238V21.0237V21.0424Z" fill="white"/>
<path d="M115.33 18.0444H127.44V21.0424H109.275V0H115.33V18.0444Z" fill="white"/>
<path d="M142.568 2.99803V18.0444H148.624V21.0424H130.458V18.0444H136.513V2.99803H130.458V0H148.624V2.99803H142.568Z" fill="white"/>
<path d="M157.716 21.0424V2.99803H151.642V0H169.807V2.99803H163.752V21.0424H157.716Z" fill="white"/>
<path d="M187.953 18.0444V15.0464H194.009V18.0444H190.99V21.0424H178.88V18.0444H175.862V15.0464H172.844V6.01479H175.862V2.99803H178.88V0H190.99V2.99803H194.009V5.99606H187.953V2.99803H181.898V5.99606H178.88V15.0089H181.898V18.0069H187.953V18.0444Z" fill="white"/>
<path d="M197.046 0H203.101V9.01282H212.174V0H218.229V21.0424H212.174V12.0296H203.101V21.0424H197.046V0Z" fill="white"/>
<path d="M239.413 12.0296H227.302V18.0444H239.413V21.0424H221.247V0H239.413V2.99803H227.302V9.01282H239.413V12.0108V12.0296Z" fill="white"/>
<path d="M260.596 12.0296H248.486V18.0444H260.596V21.0424H242.431V0H260.596V2.99803H248.486V9.01282H260.596V12.0108V12.0296Z" fill="white"/>
<path d="M281.78 6.01479H275.724V2.99803H269.669V9.01282H281.78V12.0108H284.798V18.0256H281.78V21.0237H266.651V18.0256H263.633V14.9714H269.726L269.688 18.0256H278.761V12.0108H266.651V9.01282H263.633V2.99803H266.651V0H278.761V2.99803H281.798V5.99606L281.78 6.01479Z" fill="white"/>
<path d="M306 12.0296H293.89V18.0444H306V21.0424H287.834V0H306V2.99803H293.89V9.01282H306V12.0108V12.0296Z" fill="white"/>
<path d="M103.22 41.9724H97.1646V38.9744H91.1095V44.9892H103.22V47.9872H106.238V54.002H103.22V57H88.0914V54.002H85.0732V50.9477H91.1661L91.1284 54.002H100.202V47.9872H88.0914V44.9892H85.0732V38.9744H88.0914V35.9763H100.202V38.9744H103.239V41.9724H103.22Z" fill="white"/>
<path d="M115.33 57V38.9556H109.256V35.9576H127.421V38.9556H121.366V57H115.33Z" fill="white"/>
<path d="M136.513 35.9576V54.002H145.587V35.9576H151.642V54.002H148.624V57H133.495V54.002H130.477V35.9576H136.532H136.513Z" fill="white"/>
<path d="M175.862 50.9852H172.844V53.9832H169.807V56.9813H154.679V35.9389H169.807V38.9369H172.844V41.9349H175.862V50.9477V50.9852ZM169.807 50.9852V41.9724H166.789V38.9744H160.734V54.002H166.789V51.0039H169.807V50.9852Z" fill="white"/>
<path d="M190.991 38.9744V54.002H197.046V57H178.88V54.002H184.935V38.9744H178.88V35.9763H197.046V38.9744H190.991Z" fill="white"/>
<path d="M218.229 57H203.101V54.002H200.083V38.9744H203.101V35.9763H218.229V38.9744H221.247V54.002H218.229V57ZM215.192 38.9556H206.119V53.9832H215.192V38.9556Z" fill="white"/>
</g>
<defs>
<clipPath id="clip0_18_346">
<rect width="306" height="57" fill="white"/>
</clipPath>
</defs>
</svg>
